<?xml version="1.0" encoding="utf-8"?>
<!-- Generator: Adobe Illustrator 25.4.1, SVG Export Plug-In . SVG Version: 6.00 Build 0)  -->
<svg version="1.1" id="Layer_1" xmlns="http://www.w3.org/2000/svg" xmlns:xlink="http://www.w3.org/1999/xlink" x="0px" y="0px"
	 viewBox="0 0 218.5 220.1" style="enable-background:new 0 0 218.5 220.1;" xml:space="preserve">
<style type="text/css">
	.st0{fill:#E9EAEB;}
	.st1{fill:#F4F3F3;}
</style>
<g>
	<g>
		<g>
			<path class="st0" d="M109.2,148.5c-16.4,0-30.4-10.3-35.9-24.8H0c3,24.3,13.9,46.7,31.4,64.3c20.8,20.8,48.4,32.2,77.8,32.2
				c29.4,0,57-11.4,77.8-32.2c17.6-17.6,28.4-40,31.4-64.3h-73.3C139.7,138.2,125.7,148.5,109.2,148.5z"/>
		</g>
		<g>
			<circle class="st1" cx="109.2" cy="110.1" r="25.1"/>
		</g>
		<g>
			<path class="st0" d="M109.2,0c-29.4,0-57,11.4-77.8,32.2C13.9,49.8,3,72.2,0,96.5h73.3c5.5-14.5,19.5-24.8,35.9-24.8
				s30.4,10.3,35.9,24.8h73.3c-3-24.3-13.9-46.7-31.4-64.3C166.3,11.4,138.6,0,109.2,0z"/>
		</g>
	</g>
</g>
<g>
</g>
<g>
</g>
<g>
</g>
<g>
</g>
<g>
</g>
<g>
</g>
</svg>
